<svg id="Capa_1" enable-background="new 0 0 497 497" height="512" viewBox="0 0 497 497" width="512" xmlns="http://www.w3.org/2000/svg"><path d="m368.257 256.022-205.831 191.689-127.279 14.142c46.863 46.863 122.843 46.863 169.706 0l128.5-128.5c21.517-21.518 33.147-49.174 34.904-77.331z" fill="#6241ea"/><path d="m333.353 163.647c-15.456-15.456-34.08-25.811-53.781-31.072-26.868-26.872-42.424-42.424-115.913 31.06l-128.512 128.512c-46.863 46.863-46.863 122.843 0 169.706 35.148 35.147 101.63 25.649 148.493-21.213l184.618-184.618c2.07-33.167-9.56-67.029-34.905-92.375zm-170.926 255.779c-23.432 23.432-61.421 23.432-84.853 0s-23.432-61.421 0-84.853l55.002-55.002 73.498 53.781c-35.147-35.147-35.147-92.132 0-127.279 23.432-23.432 61.421-23.432 84.853 0s23.432 61.421 0 84.853z" fill="#725fee"/><path d="m461.853 35.147-14.142 127.279-156.785 156.785-127.279 14.142c46.863 46.863 122.843 46.863 169.706 0l128.5-128.5c46.863-46.863 46.863-122.843 0-169.706z" fill="#28abfa"/><path d="m461.853 35.147c-46.863-46.863-122.843-46.863-169.706 0l-128.5 128.5c31.407-31.407 75.891-41.762 115.925-31.072l55.002-55.002c23.432-23.432 61.421-23.432 84.853 0s23.432 61.421 0 84.853l-128.5 128.5c-23.431 23.432-61.421 23.432-84.853 0s-23.431-61.421 0-84.853l-73.498 73.498c5.261 19.701 15.616 38.325 31.072 53.781 35.147 35.147 101.63 25.65 148.492-21.213l128.5-128.5c46.863-46.862 56.36-113.345 21.213-148.492z" fill="#4fdbff"/></svg>